PS_ngait_og_ss1_kinetics.mot
version=1
nRows=24
nColumns=28
inDegrees=yes
endheader
time	1_ground_force_vx	1_ground_force_vy	1_ground_force_vz	1_ground_force_px	1_ground_force_py	1_ground_force_pz	2_ground_force_vx	2_ground_force_vy	2_ground_force_vz	2_ground_force_px	2_ground_force_py	2_ground_force_pz	3_ground_force_vx	3_ground_force_vy	3_ground_force_vz	3_ground_force_px	3_ground_force_py	3_ground_force_pz	1_ground_torque_x	1_ground_torque_y	1_ground_torque_z	2_ground_torque_x	2_ground_torque_y	2_ground_torque_z	3_ground_torque_x	3_ground_torque_y	3_ground_torque_z
  0.82500000	  0.00000000	  0.00000000	  0.00000000	  0.30000000	 -0.00600000	  0.20000000	  0.00000000	  0.00000000	  0.00000000	 -0.30000000	 -0.00600000	  0.20000000	-55.52910785	722.04730539	-35.41101405	  0.97323217	 -0.00600000	  0.25473564	  0.00000000	  0.00000000	  0.00000000	  0.00000000	  0.00000000	  0.00000000	  0.00000000	 -2.89757224	  0.00000000
  0.82583333	  0.00000000	  0.00000000	  0.00000000	  0.30000000	 -0.00600000	  0.20000000	  0.00000000	  0.00000000	  0.00000000	 -0.30000000	 -0.00600000	  0.20000000	-55.14861881	720.74886343	-35.21038008	  0.97365914	 -0.00600000	  0.25479913	  0.00000000	  0.00000000	  0.00000000	  0.00000000	  0.00000000	  0.00000000	  0.00000000	 -2.90508747	  0.00000000
  0.82666667	  0.00000000	  0.00000000	  0.00000000	  0.30000000	 -0.00600000	  0.20000000	  0.00000000	  0.00000000	  0.00000000	 -0.30000000	 -0.00600000	  0.20000000	-54.77219187	719.47926315	-35.01565947	  0.97408872	 -0.00600000	  0.25485950	  0.00000000	  0.00000000	  0.00000000	  0.00000000	  0.00000000	  0.00000000	  0.00000000	 -2.91284239	  0.00000000
  0.82750000	  0.00000000	  0.00000000	  0.00000000	  0.30000000	 -0.00600000	  0.20000000	  0.00000000	  0.00000000	  0.00000000	 -0.30000000	 -0.00600000	  0.20000000	-54.40342660	718.23914485	-34.82913161	  0.97451910	 -0.00600000	  0.25491495	  0.00000000	  0.00000000	  0.00000000	  0.00000000	  0.00000000	  0.00000000	  0.00000000	 -2.92084284	  0.00000000
  0.82833333	  0.00000000	  0.00000000	  0.00000000	  0.30000000	 -0.00600000	  0.20000000	  0.00000000	  0.00000000	  0.00000000	 -0.30000000	 -0.00600000	  0.20000000	-54.04533629	717.02858960	-34.65240698	  0.97494839	 -0.00600000	  0.25496436	  0.00000000	  0.00000000	  0.00000000	  0.00000000	  0.00000000	  0.00000000	  0.00000000	 -2.92880271	  0.00000000
  0.82916667	  0.00000000	  0.00000000	  0.00000000	  0.30000000	 -0.00600000	  0.20000000	  0.00000000	  0.00000000	  0.00000000	 -0.30000000	 -0.00600000	  0.20000000	-53.69998872	715.84643243	-34.48603555	  0.97537419	 -0.00600000	  0.25500676	  0.00000000	  0.00000000	  0.00000000	  0.00000000	  0.00000000	  0.00000000	  0.00000000	 -2.93633059	  0.00000000
  0.83000000	  0.00000000	  0.00000000	  0.00000000	  0.30000000	 -0.00600000	  0.20000000	  0.00000000	  0.00000000	  0.00000000	 -0.30000000	 -0.00600000	  0.20000000	-53.36898892	714.69073117	-34.32902228	  0.97579368	 -0.00600000	  0.25504173	  0.00000000	  0.00000000	  0.00000000	  0.00000000	  0.00000000	  0.00000000	  0.00000000	 -2.94294217	  0.00000000
  0.83083333	  0.00000000	  0.00000000	  0.00000000	  0.30000000	 -0.00600000	  0.20000000	  0.00000000	  0.00000000	  0.00000000	 -0.30000000	 -0.00600000	  0.20000000	-53.05385834	713.56064425	-34.17906146	  0.97620399	 -0.00600000	  0.25507064	  0.00000000	  0.00000000	  0.00000000	  0.00000000	  0.00000000	  0.00000000	  0.00000000	 -2.94805515	  0.00000000
  0.83166667	  0.00000000	  0.00000000	  0.00000000	  0.30000000	 -0.00600000	  0.20000000	  0.00000000	  0.00000000	  0.00000000	 -0.30000000	 -0.00600000	  0.20000000	-52.75586689	712.45721945	-34.03386814	  0.97660241	 -0.00600000	  0.25509634	  0.00000000	  0.00000000	  0.00000000	  0.00000000	  0.00000000	  0.00000000	  0.00000000	 -2.95122353	  0.00000000
  0.83250000	  0.00000000	  0.00000000	  0.00000000	  0.30000000	 -0.00600000	  0.20000000	  0.00000000	  0.00000000	  0.00000000	 -0.30000000	 -0.00600000	  0.20000000	-52.47581339	711.38234473	-33.89211123	  0.97698685	 -0.00600000	  0.25512105	  0.00000000	  0.00000000	  0.00000000	  0.00000000	  0.00000000	  0.00000000	  0.00000000	 -2.95237368	  0.00000000
  0.83333333	  0.00000000	  0.00000000	  0.00000000	  0.30000000	 -0.00600000	  0.20000000	  0.00000000	  0.00000000	  0.00000000	 -0.30000000	 -0.00600000	  0.20000000	-52.21406322	710.33711006	-33.75307873	  0.97735693	 -0.00600000	  0.25514569	  0.00000000	  0.00000000	  0.00000000	  0.00000000	  0.00000000	  0.00000000	  0.00000000	 -2.95168791	  0.00000000
  0.83416667	  0.00000000	  0.00000000	  0.00000000	  0.30000000	 -0.00600000	  0.20000000	  0.00000000	  0.00000000	  0.00000000	 -0.30000000	 -0.00600000	  0.20000000	-51.97090308	709.32020209	-33.61645586	  0.97771453	 -0.00600000	  0.25517087	  0.00000000	  0.00000000	  0.00000000	  0.00000000	  0.00000000	  0.00000000	  0.00000000	 -2.94934163	  0.00000000
  0.83500000	  0.00000000	  0.00000000	  0.00000000	  0.30000000	 -0.00600000	  0.20000000	  0.00000000	  0.00000000	  0.00000000	 -0.30000000	 -0.00600000	  0.20000000	-51.74689840	708.32733097	-33.48259375	  0.97806317	 -0.00600000	  0.25519710	  0.00000000	  0.00000000	  0.00000000	  0.00000000	  0.00000000	  0.00000000	  0.00000000	 -2.94536676	  0.00000000
  0.83583333	  0.00000000	  0.00000000	  0.00000000	  0.30000000	 -0.00600000	  0.20000000	  0.00000000	  0.00000000	  0.00000000	 -0.30000000	 -0.00600000	  0.20000000	-51.54268910	707.35257029	-33.35220638	  0.97840738	 -0.00600000	  0.25522438	  0.00000000	  0.00000000	  0.00000000	  0.00000000	  0.00000000	  0.00000000	  0.00000000	 -2.93967888	  0.00000000
  0.83666667	  0.00000000	  0.00000000	  0.00000000	  0.30000000	 -0.00600000	  0.20000000	  0.00000000	  0.00000000	  0.00000000	 -0.30000000	 -0.00600000	  0.20000000	-51.35815968	706.39049618	-33.22562026	  0.97875267	 -0.00600000	  0.25525196	  0.00000000	  0.00000000	  0.00000000	  0.00000000	  0.00000000	  0.00000000	  0.00000000	 -2.93231167	  0.00000000
  0.83750000	  0.00000000	  0.00000000	  0.00000000	  0.30000000	 -0.00600000	  0.20000000	  0.00000000	  0.00000000	  0.00000000	 -0.30000000	 -0.00600000	  0.20000000	-51.19173321	705.43789114	-33.10251343	  0.97910445	 -0.00600000	  0.25527870	  0.00000000	  0.00000000	  0.00000000	  0.00000000	  0.00000000	  0.00000000	  0.00000000	 -2.92360663	  0.00000000
  0.83833333	  0.00000000	  0.00000000	  0.00000000	  0.30000000	 -0.00600000	  0.20000000	  0.00000000	  0.00000000	  0.00000000	 -0.30000000	 -0.00600000	  0.20000000	-51.04060372	704.49415201	-32.98233108	  0.97946617	 -0.00600000	  0.25530338	  0.00000000	  0.00000000	  0.00000000	  0.00000000	  0.00000000	  0.00000000	  0.00000000	 -2.91413507	  0.00000000
  0.83916667	  0.00000000	  0.00000000	  0.00000000	  0.30000000	 -0.00600000	  0.20000000	  0.00000000	  0.00000000	  0.00000000	 -0.30000000	 -0.00600000	  0.20000000	-50.90147396	703.55828603	-32.86468995	  0.97983897	 -0.00600000	  0.25532495	  0.00000000	  0.00000000	  0.00000000	  0.00000000	  0.00000000	  0.00000000	  0.00000000	 -2.90458058	  0.00000000
  0.84000000	  0.00000000	  0.00000000	  0.00000000	  0.30000000	 -0.00600000	  0.20000000	  0.00000000	  0.00000000	  0.00000000	 -0.30000000	 -0.00600000	  0.20000000	-50.77080617	702.62487803	-32.74927278	  0.98022290	 -0.00600000	  0.25534264	  0.00000000	  0.00000000	  0.00000000	  0.00000000	  0.00000000	  0.00000000	  0.00000000	 -2.89571761	  0.00000000
  0.84083333	  0.00000000	  0.00000000	  0.00000000	  0.30000000	 -0.00600000	  0.20000000	  0.00000000	  0.00000000	  0.00000000	 -0.30000000	 -0.00600000	  0.20000000	-50.64478374	701.68591678	-32.63546414	  0.98061724	 -0.00600000	  0.25535616	  0.00000000	  0.00000000	  0.00000000	  0.00000000	  0.00000000	  0.00000000	  0.00000000	 -2.88837289	  0.00000000
  0.84166667	  0.00000000	  0.00000000	  0.00000000	  0.30000000	 -0.00600000	  0.20000000	  0.00000000	  0.00000000	  0.00000000	 -0.30000000	 -0.00600000	  0.20000000	-50.51955829	700.73674454	-32.52210449	  0.98101979	 -0.00600000	  0.25536580	  0.00000000	  0.00000000	  0.00000000	  0.00000000	  0.00000000	  0.00000000	  0.00000000	 -2.88334868	  0.00000000
  0.84250000	  0.00000000	  0.00000000	  0.00000000	  0.30000000	 -0.00600000	  0.20000000	  0.00000000	  0.00000000	  0.00000000	 -0.30000000	 -0.00600000	  0.20000000	-50.39166908	699.77751716	-32.40774015	  0.98142717	 -0.00600000	  0.25537249	  0.00000000	  0.00000000	  0.00000000	  0.00000000	  0.00000000	  0.00000000	  0.00000000	 -2.88138766	  0.00000000
  0.84333333	  0.00000000	  0.00000000	  0.00000000	  0.30000000	 -0.00600000	  0.20000000	  0.00000000	  0.00000000	  0.00000000	 -0.30000000	 -0.00600000	  0.20000000	-50.25839670	698.80981247	-32.29130996	  0.98183607	 -0.00600000	  0.25537770	  0.00000000	  0.00000000	  0.00000000	  0.00000000	  0.00000000	  0.00000000	  0.00000000	 -2.88313644	  0.00000000
  0.84416667	  0.00000000	  0.00000000	  0.00000000	  0.30000000	 -0.00600000	  0.20000000	  0.00000000	  0.00000000	  0.00000000	 -0.30000000	 -0.00600000	  0.20000000	-50.11787415	697.83477002	-32.17245941	  0.98224403	 -0.00600000	  0.25538326	  0.00000000	  0.00000000	  0.00000000	  0.00000000	  0.00000000	  0.00000000	  0.00000000	 -2.88890284	  0.00000000
